<?xml version="1.0" encoding="iso-8859-1"?>
<!-- Generator: Adobe Illustrator 19.0.0, SVG Export Plug-In . SVG Version: 6.00 Build 0)  -->
<svg version="1.1" id="Capa_1" xmlns="http://www.w3.org/2000/svg" xmlns:xlink="http://www.w3.org/1999/xlink" x="0px" y="0px"
	 viewBox="0 0 511.999 511.999" style="enable-background:new 0 0 511.999 511.999;" xml:space="preserve">
<g>
	<g transform="translate(1 1)">
		<g>
			<path style="fill:#00695C;" d="M425.666,476.779c-0.563,5.39-3.758,10.152-8.533,12.715c-2.684,1.84-5.542,3.412-8.533,4.693
				c-0.171,0.085-0.427,0.171-0.597,0.256c-4.754,1.968-9.663,3.538-14.677,4.693c-6.162,1.341-12.404,2.282-18.688,2.816
				c-1.451,0.085-3.072,0.171-4.608,0.256c-1.365,0.085-2.731,0.171-4.096,0.171c-1.28,0.085-2.645,0.085-4.011,0.085h-1.621
				c-1.451,0-2.901-0.085-4.352-0.085c-2.389-0.085-4.779-0.256-7.083-0.427c-5.706-0.476-11.377-1.303-16.981-2.475
				c-2.304-0.427-4.608-1.024-6.741-1.621c-6.592-1.697-12.872-4.434-18.603-8.107c-1.018-0.671-1.987-1.412-2.901-2.219
				c-3.496-2.513-5.686-6.456-5.973-10.752c0.005-0.315,0.034-0.628,0.085-0.939c0.256-2.389,0.853-9.301,1.365-19.712h-88.235
				c0.512,10.411,1.109,17.323,1.365,19.712c0.052,0.31,0.08,0.624,0.085,0.939c-0.287,4.296-2.478,8.239-5.973,10.752
				c-6.345,4.943-13.679,8.464-21.504,10.325c-2.133,0.597-4.437,1.195-6.741,1.621c-5.604,1.172-11.276,1.998-16.981,2.475
				c-4.096,0.341-8.448,0.512-12.8,0.512h-0.256c-1.365,0-2.73,0-4.011-0.085c-1.365,0-2.731-0.085-4.096-0.171
				c-1.536-0.085-3.157-0.171-4.608-0.256c-6.284-0.534-12.526-1.475-18.688-2.816h-0.085c-4.986-1.155-9.867-2.725-14.592-4.693
				c-0.171-0.085-0.427-0.171-0.597-0.256c-10.581-4.608-17.067-10.752-17.067-17.408c-0.02-26.37,4.364-52.557,12.971-77.483
				h315.392C421.295,424.224,425.678,450.411,425.666,476.779z"/>
			<path style="fill:#00695C;" d="M161.133,92.438c-3.925,2.816-7.765,5.803-11.52,8.875l-58.112,67.925
				c-21.685,33.547-35.297,71.665-39.765,111.36h-0.512c-62.891-25.173-37.717-78.08-20.139-104.192
				c-12.203-5.632-42.069-24.661-3.328-66.475C72.215,61.974,151.234,88.854,161.133,92.438z"/>
			<path style="fill:#00695C;" d="M478.829,179.027c17.579,26.112,42.752,79.019-20.139,104.192h-0.512
				c-4.469-39.695-18.08-77.813-39.765-111.36l-58.112-67.925c-3.755-3.072-7.509-6.059-11.435-8.875
				c10.155-3.67,88.917-30.379,133.291,17.493C520.898,154.366,491.031,173.396,478.829,179.027z"/>
			<path style="fill:#00695C;" d="M459.799,292.715c0,92.245-91.733,167.083-204.8,167.083s-204.8-74.837-204.8-167.083
				c0-3.925,0.171-7.936,0.512-12.117c3.925-36.022,15.558-70.778,34.109-101.904c3.707-6.327,7.998-12.294,12.815-17.823
				l42.939-50.19c5.722-6.808,12.241-12.904,19.417-18.158l0.118-0.085c16.181-12.053,34.265-21.312,53.504-27.392
				c3.157-0.939,6.4-1.877,9.643-2.645h0.085c11.183-22.223,27.98-41.138,48.725-54.869c-4.85,13.238-7.418,27.204-7.595,41.301
				c12.216-15.277,30.701-24.189,50.261-24.235c-8.396,12.417-13.316,26.854-14.251,41.813
				c17.703,6.098,34.366,14.876,49.408,26.027h0.085l0.22,0.158c7.052,5.189,13.458,11.202,19.082,17.912l43.086,50.362
				c4.817,5.529,9.107,11.496,12.815,17.823c18.551,31.127,30.184,65.882,34.109,101.904
				C459.629,284.779,459.799,288.79,459.799,292.715z"/>
		</g>
		<path style="fill:#009688;" d="M459.799,286.954c0,76.581-91.733,138.71-204.8,138.71s-204.8-62.129-204.8-138.71
			c0-3.259,0.171-6.588,0.512-10.06c4.188-30.589,15.909-59.66,34.109-84.599c3.781-5.337,8.072-10.293,12.815-14.797l42.939-41.667
			c5.864-5.763,12.38-10.822,19.417-15.074l0.118-0.07c16.61-10.189,34.641-17.853,53.504-22.741c3.157-0.779,6.4-1.559,9.643-2.196
			h0.085c11.946-19.211,28.755-34.925,48.725-45.552c-4.796,10.807-7.378,22.466-7.595,34.288
			c13.322-13.26,31.469-20.524,50.261-20.119c-8.152,9.863-13.121,21.967-14.251,34.713c17.376,4.92,33.999,12.189,49.408,21.607
			h0.085l0.22,0.131c6.915,4.201,13.319,9.191,19.082,14.87l43.086,41.81c4.742,4.504,9.034,9.46,12.815,14.797
			c18.201,24.94,29.921,54.01,34.109,84.599C459.629,280.366,459.799,283.696,459.799,286.954z"/>
		<g>
			<path style="fill:#E6E7E8;" d="M123.586,475.158c-4.843,4.308-6.883,10.954-5.291,17.237c0.45,2.376-0.14,4.83-1.621,6.741
				h-0.085c-4.986-1.155-9.867-2.725-14.592-4.693c-0.171-0.085-0.427-0.171-0.597-0.256c-2.301-12.303,2.317-24.878,12.032-32.768
				c3.832-2.721,9.134-1.888,11.947,1.877C128.121,467.076,127.323,472.357,123.586,475.158z"/>
			<path style="fill:#E6E7E8;" d="M167.277,482.838c-4.251,5.441-6.429,12.216-6.144,19.115c-4.096,0.341-8.448,0.512-12.8,0.512
				h-0.256c-1.365,0-2.73,0-4.011-0.085c-0.464-11.539,3.47-22.824,11.008-31.573c3.331-3.323,8.718-3.339,12.068-0.036
				C170.493,474.074,170.553,479.461,167.277,482.838z"/>
			<path style="fill:#E6E7E8;" d="M408.599,494.187c-0.171,0.085-0.427,0.171-0.597,0.256c-4.754,1.968-9.663,3.538-14.677,4.693
				c-1.481-1.911-2.072-4.366-1.621-6.741c1.572-6.282-0.465-12.918-5.291-17.237c-3.692-2.883-4.411-8.184-1.621-11.947
				c2.788-3.696,8.015-4.491,11.776-1.792C406.283,469.31,410.9,481.885,408.599,494.187z"/>
			<path style="fill:#E6E7E8;" d="M365.933,502.379c-1.28,0.085-2.645,0.085-4.011,0.085h-1.621c-1.451,0-2.901-0.085-4.352-0.085
				c-2.389-0.085-4.779-0.256-7.083-0.427c0.284-6.899-1.894-13.673-6.144-19.115c-3.172-3.424-3.059-8.746,0.256-12.032
				c3.322-3.243,8.625-3.243,11.947,0C362.463,479.555,366.397,490.84,365.933,502.379z"/>
		</g>
		<g>
			<path style="fill:#FFFFFF;" d="M144.066,198.756c3.992,20.418,20.837,35.842,41.527,38.023s40.381-9.391,48.543-28.527
				c8.162-19.136,2.884-41.359-13.012-54.781C164.189,146.164,147.735,186.776,144.066,198.756z"/>
			<path style="fill:#FFFFFF;" d="M288.875,153.471c-16.31,13.367-21.888,35.868-13.71,55.305s28.164,31.183,49.124,28.869
				c20.96-2.314,37.903-18.136,41.644-38.889C362.263,186.776,345.81,146.164,288.875,153.471z"/>
		</g>
		<g>
			<path style="fill:#2C3E50;" d="M195.266,203.798h-8.533c-4.713,0-8.533-3.821-8.533-8.533c0-4.713,3.821-8.533,8.533-8.533h8.533
				c4.713,0,8.533,3.821,8.533,8.533C203.799,199.978,199.979,203.798,195.266,203.798z"/>
			<path style="fill:#2C3E50;" d="M323.266,203.798h-8.533c-4.713,0-8.533-3.821-8.533-8.533c0-4.713,3.82-8.533,8.533-8.533h8.533
				c4.713,0,8.533,3.821,8.533,8.533C331.799,199.978,327.979,203.798,323.266,203.798z"/>
			<path style="fill:#2C3E50;" d="M374.466,306.198c-2.211,0.003-4.336-0.855-5.925-2.392c-0.533-0.471-16.009-13.767-62.758-16.05
				l-101.983,0.008c-46.942,2.304-62.208,15.917-62.358,16.054c-3.424,3.159-8.738,3.026-12-0.3
				c-3.234-3.312-3.208-8.607,0.059-11.887c1.867-1.862,19.767-18.275,73.883-20.925l102.816-0.009
				c54.533,2.658,72.433,19.071,74.3,20.933c2.44,2.44,3.17,6.11,1.849,9.299C381.028,304.118,377.917,306.197,374.466,306.198z"/>
			<path style="fill:#2C3E50;" d="M118.816,331.798c-2.597,0.004-5.054-1.175-6.675-3.204
				c-15.025-18.783-21.475-35.858-19.167-50.737c1.134-8.542,5.664-16.266,12.567-21.425c3.896-2.59,9.151-1.56,11.78,2.309
				c2.63,3.869,1.653,9.134-2.189,11.803c-3.049,2.642-4.968,6.355-5.358,10.371c-0.9,6.813,1.092,18.762,15.7,37.021
				c2.047,2.561,2.447,6.068,1.027,9.024C125.082,329.915,122.095,331.796,118.816,331.798z"/>
			<path style="fill:#2C3E50;" d="M391.183,331.798c-3.279-0.002-6.266-1.883-7.686-4.839c-1.42-2.956-1.02-6.463,1.027-9.024
				c14.85-18.558,16.7-30.617,15.633-37.463c-0.463-3.801-2.301-7.302-5.167-9.842c-3.878-2.631-4.909-7.896-2.31-11.795
				c2.599-3.899,7.857-4.972,11.776-2.404c6.903,5.158,11.433,12.883,12.567,21.425c2.308,14.879-4.142,31.954-19.167,50.737
				C396.237,330.623,393.78,331.802,391.183,331.798z"/>
		</g>
		<path style="fill:#009688;" d="M246.989,229.398c-20.939-0.133-38.839,15.041-42.138,35.719
			c-0.704,4.755-1.056,9.556-1.052,14.363c-0.07,10.705,1.75,21.339,5.376,31.411c-1.871,1.147-3.591,2.523-5.12,4.096
			c-5.363,5.29-8.501,12.431-8.769,19.959c0.04,8.298,3.391,16.237,9.309,22.054c5.918,5.817,13.913,9.032,22.21,8.93h58.06
			c13.288,0.021,24.987-8.753,28.687-21.516c3.7-12.763-1.491-26.434-12.73-33.524c3.626-10.073,5.446-20.706,5.376-31.411
			c0.003-4.807-0.348-9.608-1.052-14.363c-3.298-20.678-21.198-35.852-42.137-35.72H246.989z"/>
	</g>
	<g>
		<path d="M352.332,83.928c-12.924-9.018-26.902-16.421-41.625-22.044c1.626-11.124,5.668-21.757,11.842-31.153
			c1.944-2.585,2.261-6.046,0.817-8.941c-1.444-2.894-4.399-4.724-7.634-4.726c-14.019-0.047-27.742,4.035-39.455,11.739
			c1.125-5.818,2.701-11.54,4.713-17.114c1.381-3.47,0.345-7.434-2.556-9.785c-2.901-2.351-6.994-2.543-10.103-0.473
			c-20.893,13.835-38.029,32.636-49.874,54.718c-2.121,0.572-4.25,1.114-6.343,1.74c-18.72,5.907-36.404,14.696-52.417,26.049
			c-22.455-7.402-94.426-26.052-138.225,21.192C4.691,123.244-2.309,140.048,0.666,155.077c2.466,10.567,9.087,19.693,18.368,25.315
			C8.695,197.703-1.468,221.945,3.874,244.898c4.261,18.307,17.48,32.5,39.096,42.356c-0.089,2.148-0.305,4.356-0.305,6.46
			c0.555,40.896,17.091,79.952,46.072,108.813c-7.864,24.297-11.892,49.671-11.939,75.208c0,5.979,2.975,17.246,22.833,25.508
			c11.578,4.616,23.806,7.392,36.242,8.229l4.542,0.25c2.833,0.183,5.75,0.275,8.917,0.275c1.259,0,2.492-0.158,3.751-0.188
			c0.18,0.011,0.333,0.104,0.516,0.104c0.288-0.042,0.573-0.099,0.855-0.172c8.81-0.2,17.586-1.167,26.229-2.89
			c2.55-0.475,5.117-1.137,7.475-1.8c9.018-2.142,17.456-6.238,24.717-12c5.48-4.1,8.79-10.476,8.991-17.316
			c0.009-0.592-0.036-1.183-0.133-1.766c-0.155-1.472-0.43-4.681-0.728-9.041c23.221,3.204,46.771,3.204,69.992,0
			c-0.291,4.296-0.553,7.389-0.672,8.582c-0.127,0.735-0.191,1.479-0.192,2.225c0.172,6.746,3.4,13.049,8.775,17.129
			c1.186,1.059,2.444,2.034,3.767,2.917c6.509,4.207,13.653,7.337,21.158,9.271c2.367,0.663,4.933,1.325,7.275,1.758
			c8.51,1.767,17.155,2.804,25.842,3.1l5.975,0.087c2.908,0,5.825-0.092,8.892-0.288l4.55-0.258
			c12.324-0.842,24.442-3.6,35.917-8.175c3.764-1.523,7.352-3.449,10.7-5.746c7.211-4.053,11.827-11.533,12.216-19.796
			c-0.046-25.538-4.074-50.912-11.938-75.209c28.98-28.861,45.516-67.916,46.071-108.812c0-2.104-0.216-4.313-0.305-6.46
			c21.617-9.856,34.835-24.049,39.096-42.356c5.342-22.953-4.82-47.195-15.159-64.505c9.28-5.623,15.902-14.749,18.368-25.316
			c2.975-15.029-4.025-31.833-20.808-49.946C446.753,57.904,374.822,76.516,352.332,83.928z M204.799,477.736
			c-0.43,1.803-1.529,3.376-3.075,4.4c-5.402,4.061-11.593,6.95-18.175,8.483c-1.9,0.538-3.95,1.075-6.208,1.5
			c-4.653,0.967-9.355,1.673-14.087,2.116c0.844-3.81,2.553-7.375,4.995-10.42c3.257-3.364,3.195-8.723-0.138-12.011
			c-3.333-3.288-8.693-3.275-12.012,0.028c-5.676,6.473-9.276,14.502-10.334,23.045c-1.489-0.042-3.016-0.106-4.658-0.208
			l-4.008-0.217c-6.049-0.511-12.054-1.464-17.964-2.849c-0.908-5.736,1.141-11.543,5.447-15.439c3.757-2.81,4.54-8.125,1.755-11.9
			c-2.785-3.775-8.095-4.594-11.888-1.833c-6.979,5.797-11.389,14.112-12.273,23.141c-5.975-3.18-8.31-6.295-8.31-7.837
			c0.052-21.017,3-41.927,8.761-62.139c29.126,24.315,63.878,40.948,101.084,48.38C204.128,470.874,204.554,475.736,204.799,477.736
			z M413.224,483.536c-1.09,0.757-2.225,1.445-3.399,2.061c-0.879-9.038-5.291-17.363-12.276-23.165
			c-3.756-2.718-9-1.912-11.767,1.808c-2.786,3.751-2.069,9.04,1.617,11.913c4.32,3.896,6.376,9.713,5.463,15.458
			c-5.831,1.37-11.754,2.313-17.721,2.821l-4.658,0.258c-1.344,0.086-2.839,0.092-4.259,0.132
			c-1.066-8.523-4.662-16.531-10.324-22.99c-3.286-3.284-8.605-3.304-11.917-0.046c-3.334,3.274-3.442,8.612-0.242,12.017
			c2.433,3.027,4.139,6.573,4.986,10.364c-4.794-0.437-9.56-1.134-14.278-2.089c-2.05-0.383-4.1-0.921-5.967-1.446
			c-5.731-1.444-11.196-3.788-16.192-6.946c-0.75-0.498-1.463-1.049-2.133-1.65c-1.483-0.986-2.53-2.505-2.925-4.242
			c0.22-2.045,0.64-6.918,1.055-13.818c37.206-7.432,71.958-24.064,101.084-48.379c5.762,20.212,8.71,41.122,8.761,62.139
			C418.133,478.898,416.858,481.023,413.224,483.536z M494.591,151.765c-1.632,6.095-5.618,11.292-11.081,14.449
			c-4.206-5.689-7.381-9.286-7.836-9.791c-3.151-3.505-8.547-3.791-12.052-0.64c-3.505,3.152-3.791,8.547-0.64,12.052
			c0.367,0.404,36.108,40.733,28.517,73.225c-3.563,12.43-12.401,22.67-24.175,28.014c-6.082-36.76-19.535-71.911-39.55-103.339
			c-2.487-4.004-7.75-5.234-11.754-2.746c-4.004,2.487-5.234,7.75-2.746,11.754c24.784,39.879,38.992,83.246,38.992,118.971
			c0,87.425-88.042,158.55-196.267,158.55S59.733,381.139,59.733,293.715c0-35.725,14.208-79.092,38.992-118.971
			c1.609-2.59,1.714-5.842,0.276-8.531c-1.439-2.689-4.202-4.406-7.25-4.504s-5.917,1.436-7.526,4.027
			c-20.015,31.428-33.468,66.578-39.55,103.339C32.9,263.73,24.063,253.489,20.499,241.06c-7.592-32.492,28.15-72.821,28.517-73.225
			c3.151-3.505,2.865-8.901-0.64-12.052c-3.505-3.152-8.901-2.865-12.052,0.64c-0.455,0.505-3.63,4.103-7.836,9.791
			c-5.463-3.157-9.449-8.354-11.081-14.449c-1.825-9.238,3.908-21.35,16.583-35.033C65.392,82.855,117.25,90.377,143.16,96.963
			c-2.652,3.088-2.713,7.631-0.144,10.789c1.443,1.745,3.519,2.844,5.773,3.058c2.254,0.213,4.5-0.477,6.244-1.92
			c16.129-13.664,34.458-24.493,54.208-32.027c-1.849,5.078-3.296,10.293-4.325,15.598c-0.772,4.638,2.356,9.025,6.992,9.808
			c0.474,0.079,0.953,0.12,1.434,0.121c4.155-0.01,7.702-3.005,8.408-7.1c5.825-24.429,18.566-46.663,36.7-64.038
			c-3.66,19.558-1.222,39.769,6.983,57.896c1.359,2.735,4.076,4.535,7.124,4.72c3.048,0.185,5.963-1.272,7.644-3.822
			c1.681-2.55,1.871-5.803,0.499-8.532c-4.262-8.951-6.518-18.726-6.609-28.64c7.021-7.825,16.068-13.556,26.142-16.56
			c-4.128,9.698-6.585,20.024-7.267,30.542c-0.823,13.21,1.333,26.436,6.308,38.7c1.292,3.246,4.431,5.377,7.925,5.379
			c2.828-0.006,5.469-1.411,7.056-3.752s1.912-5.315,0.869-7.944c-2.432-6.144-4.025-12.588-4.734-19.158
			c16.833,7.299,32.518,17,46.567,28.799c3.355,2.847,8.334,2.64,11.44-0.476s3.298-8.096,0.44-11.442
			c25.911-6.586,77.769-14.108,109.17,19.768C490.683,130.415,496.416,142.527,494.591,151.765z"/>
		<path d="M196.266,187.731h-8.533c-4.713,0-8.533,3.821-8.533,8.533c0,4.713,3.821,8.533,8.533,8.533h8.533
			c4.713,0,8.533-3.821,8.533-8.533C204.799,191.552,200.979,187.731,196.266,187.731z"/>
		<path d="M315.733,204.798h8.533c4.713,0,8.533-3.821,8.533-8.533c0-4.713-3.821-8.533-8.533-8.533h-8.533
			c-4.713,0-8.533,3.821-8.533,8.533C307.199,200.978,311.02,204.798,315.733,204.798z"/>
		<path d="M381.499,292.632c-1.773-1.769-18.083-16.646-66.1-20.404c-0.664-8.799-2.493-17.471-5.437-25.789
			c3.444,0.673,6.945,1.016,10.454,1.026c27.074-0.073,50.206-19.531,54.917-46.192c0.241-1.338,0.159-2.714-0.242-4.012
			c-4.308-14.067-23.317-59.375-86.3-51.25c-1.639,0.207-3.183,0.888-4.442,1.958c-12.671,10.853-19.919,26.735-19.816,43.418
			c0.103,16.683,7.548,32.474,20.352,43.169c0.113,0.291,0.242,0.575,0.388,0.851c9.045,13.266,13.726,29.023,13.392,45.075
			c0.059,9.693-1.58,19.322-4.842,28.45c-0.095,0.257-0.053,0.519-0.122,0.779c-0.279,1.077-0.356,2.196-0.227,3.301
			c0.164,1.071,0.513,2.104,1.033,3.055c0.566,0.953,1.302,1.794,2.173,2.48c0.215,0.167,0.343,0.405,0.578,0.553
			c6.188,3.876,9.945,10.665,9.941,17.966c-0.081,11.748-9.585,21.252-21.333,21.333h-59.733
			c-11.777-0.012-21.321-9.556-21.333-21.333c-0.025-5.66,2.245-11.089,6.292-15.046c1.028-1.068,2.184-2.006,3.442-2.792
			c0.241-0.193,0.47-0.401,0.687-0.621c1.327-0.991,2.333-2.351,2.894-3.909c0.177-0.507,0.304-1.029,0.38-1.56
			c0.178-1.103,0.118-2.232-0.178-3.31c-0.03-0.301-0.077-0.599-0.141-0.895c-3.262-9.128-4.901-18.757-4.842-28.45
			c-0.335-16.052,4.347-31.809,13.392-45.075c0.146-0.276,0.276-0.56,0.389-0.852c12.804-10.695,20.249-26.486,20.352-43.169
			c0.103-16.683-7.145-32.565-19.816-43.417c-1.259-1.071-2.802-1.751-4.442-1.958c-63.05-8.117-81.992,37.183-86.3,51.25
			c-0.4,1.299-0.483,2.675-0.242,4.012c4.71,26.661,27.843,46.118,54.917,46.192c3.509-0.01,7.01-0.353,10.454-1.026
			c-2.944,8.318-4.773,16.99-5.437,25.789c-48.018,3.758-64.327,18.635-66.1,20.404c-2.413,2.443-3.119,6.098-1.79,9.264
			c1.329,3.166,4.432,5.222,7.865,5.211c2.174,0.003,4.269-0.814,5.867-2.288c0.141-0.129,13.553-12.084,54.189-15.495
			c0.545,6.61,1.763,13.148,3.635,19.511c-0.396,0.367-0.795,0.672-1.191,1.067c-7.296,7.149-11.387,16.948-11.341,27.163
			c0.023,21.198,17.202,38.377,38.4,38.4h59.733c15.839,0.045,30.072-9.667,35.804-24.433c5.733-14.766,1.782-31.537-9.938-42.192
			c1.873-6.364,3.092-12.903,3.637-19.514c40.074,3.365,53.673,15.04,54.172,15.48c3.374,3.228,8.715,3.145,11.987-0.186
			C384.8,301.289,384.787,295.947,381.499,292.632z M293.566,162.636c44.292-4.542,59.6,23.196,64.55,37.608
			c-4.4,19.354-22.715,32.253-42.421,29.875c-19.705-2.378-34.426-19.263-34.096-39.108
			C281.566,180.319,285.886,170.074,293.566,162.636z M153.883,200.244c4.95-14.413,20.233-42.171,64.55-37.608
			c11.44,11.112,15.066,28.017,9.192,42.843c-5.875,14.826-20.096,24.659-36.042,24.92
			C173.535,230.331,157.913,217.836,153.883,200.244z"/>
		<path d="M110.774,281.915c0.391-4.016,2.309-7.728,5.358-10.371c3.842-2.669,4.819-7.934,2.189-11.803
			c-2.63-3.869-7.885-4.899-11.78-2.309c-6.903,5.158-11.433,12.883-12.567,21.425c-2.308,14.879,4.142,31.954,19.167,50.737
			c2.948,3.666,8.306,4.256,11.98,1.318c3.674-2.937,4.28-8.294,1.353-11.977C111.866,300.677,109.875,288.727,110.774,281.915z"/>
		<path d="M405.458,257.432c-3.919-2.558-9.168-1.482-11.764,2.412c-2.596,3.894-1.571,9.153,2.297,11.787
			c2.866,2.54,4.703,6.04,5.167,9.842c1.067,6.846-0.783,18.904-15.633,37.463c-2.927,3.683-2.322,9.039,1.353,11.977
			c3.674,2.937,9.033,2.348,11.98-1.319c15.025-18.783,21.475-35.858,19.167-50.737C416.891,270.314,412.36,262.59,405.458,257.432z
			"/>
	</g>
</g>
<g>
</g>
<g>
</g>
<g>
</g>
<g>
</g>
<g>
</g>
<g>
</g>
<g>
</g>
<g>
</g>
<g>
</g>
<g>
</g>
<g>
</g>
<g>
</g>
<g>
</g>
<g>
</g>
<g>
</g>
</svg>
